<svg id="dribble" xmlns="http://www.w3.org/2000/svg" width="16.691" height="16.691" viewBox="0 0 16.691 16.691">
  <path id="Path_60" data-name="Path 60" d="M15.572,4.156a8.31,8.31,0,0,0-3.037-3.037A8.163,8.163,0,0,0,8.346,0,8.163,8.163,0,0,0,4.157,1.119,8.308,8.308,0,0,0,1.119,4.156,8.163,8.163,0,0,0,0,8.345a8.165,8.165,0,0,0,1.119,4.189,8.31,8.31,0,0,0,3.037,3.037,8.164,8.164,0,0,0,4.189,1.119,8.164,8.164,0,0,0,4.189-1.119,8.308,8.308,0,0,0,3.037-3.037,8.165,8.165,0,0,0,1.119-4.189A8.165,8.165,0,0,0,15.572,4.156ZM8.346,1.217A6.869,6.869,0,0,1,13.051,3l-.136.19a4.713,4.713,0,0,1-.407.44,6.984,6.984,0,0,1-.712.619,9.534,9.534,0,0,1-1.049.668,10.087,10.087,0,0,1-1.413.658A30.99,30.99,0,0,0,6.661,1.423,7.189,7.189,0,0,1,8.346,1.217ZM2.76,3.923A7.032,7.032,0,0,1,5.3,1.9,37.408,37.408,0,0,1,7.954,6.009a25.779,25.779,0,0,1-6.585.869A7.045,7.045,0,0,1,2.76,3.923ZM1.7,10.915a6.992,6.992,0,0,1-.478-2.57,1.771,1.771,0,0,1,.011-.228A25.416,25.416,0,0,0,8.541,7.107q.348.674.576,1.206a.879.879,0,0,1-.141.049L8.834,8.4l-.4.141a8.358,8.358,0,0,0-1.081.522q-.668.37-1.418.88A9.709,9.709,0,0,0,4.385,11.3,9.108,9.108,0,0,0,3.043,13.1,7.137,7.137,0,0,1,1.7,10.915Zm6.65,4.558A6.994,6.994,0,0,1,3.8,13.844l.163.12a5.816,5.816,0,0,1,1.119-1.608,9.446,9.446,0,0,1,1.423-1.244A14.028,14.028,0,0,1,8,10.22q.8-.418,1.1-.532l.467-.179L9.584,9.5h.022a29.376,29.376,0,0,1,1.521,5.412A7.125,7.125,0,0,1,8.346,15.474Zm6-3.276a7.121,7.121,0,0,1-2.01,2.059,30.616,30.616,0,0,0-1.391-5.1,10.266,10.266,0,0,1,4.444.315A7.032,7.032,0,0,1,14.344,12.2Zm1.021-3.95q-.109-.022-.272-.049l-.4-.065q-.233-.038-.522-.071T13.561,8q-.326-.027-.7-.044t-.75-.016q-.38,0-.8.022t-.809.076a1.287,1.287,0,0,1-.082-.179c-.033-.083-.056-.147-.07-.19q-.207-.456-.479-1.032a11.151,11.151,0,0,0,1.429-.7,11.106,11.106,0,0,0,1.086-.706,9.032,9.032,0,0,0,.771-.658,6.271,6.271,0,0,0,.473-.483q.109-.136.206-.266l.011-.011a6.971,6.971,0,0,1,1.619,4.455Z" transform="translate(0 0)" fill="#fff"/>
</svg>
