<svg xmlns="http://www.w3.org/2000/svg" width="9.788" height="18.104" viewBox="0 0 9.788 18.104">
  <g id="facebook" transform="translate(0)">
    <path id="Path_58" data-name="Path 58" d="M31.5,0,29.149,0a4.123,4.123,0,0,0-4.342,4.455V6.51h-2.36a.369.369,0,0,0-.369.369V9.855a.369.369,0,0,0,.369.369h2.36v7.51a.369.369,0,0,0,.369.369h3.08a.369.369,0,0,0,.369-.369v-7.51h2.76a.369.369,0,0,0,.369-.369V6.879a.369.369,0,0,0-.369-.369H28.625V4.768c0-.837.2-1.262,1.29-1.262H31.5a.369.369,0,0,0,.369-.369V.373A.369.369,0,0,0,31.5,0Z" transform="translate(-22.077)" fill="#fff"/>
  </g>
</svg>
