<svg xmlns="http://www.w3.org/2000/svg" width="16.969" height="16.302" viewBox="0 0 16.969 16.302">
  <g id="linkedin" transform="translate(0.018 -0.011)">
    <g id="Group_69" data-name="Group 69" transform="translate(0.558 5.043)">
      <g id="Group_68" data-name="Group 68">
        <rect id="Rectangle_78" data-name="Rectangle 78" width="3.666" height="11.27" fill="#fff"/>
      </g>
    </g>
    <g id="Group_71" data-name="Group 71" transform="translate(5.681 5.043)">
      <g id="Group_70" data-name="Group 70">
        <path id="Path_61" data-name="Path 61" d="M168.529,160.132c-.039-.012-.076-.026-.117-.037s-.1-.02-.149-.029a3.285,3.285,0,0,0-.658-.067,5.094,5.094,0,0,0-3.94,2.155V160H160v11.27h3.666v-6.148s2.77-3.859,3.94-1.025v7.172h3.665v-7.606A3.655,3.655,0,0,0,168.529,160.132Z" transform="translate(-160 -160)" fill="#fff"/>
      </g>
    </g>
    <g id="Group_73" data-name="Group 73" transform="translate(0 0)">
      <g id="Group_72" data-name="Group 72" transform="translate(0 0)">
        <circle id="Ellipse_14" data-name="Ellipse 14" cx="2" cy="2" r="2" transform="translate(-0.018 0.011)" fill="#fff"/>
      </g>
    </g>
  </g>
</svg>
